HIERARCHY
ROOT Hips
{
	OFFSET 0.618921 110.370956 -0.528403
	CHANNELS 6 Xposition Yposition Zposition Xrotation Yrotation Zrotation
	JOINT Chest
	{
		OFFSET 0.079933 13.570488 1.410538
		CHANNELS 3 Xrotation Yrotation Zrotation
		JOINT Chest2
		{
			OFFSET -0.763206 21.304482 2.145468
			CHANNELS 3 Xrotation Yrotation Zrotation
			JOINT Chest3
			{
				OFFSET 1.660455 14.784302 -1.219445
				CHANNELS 3 Xrotation Yrotation Zrotation
				JOINT Neck
				{
					OFFSET 0.928506 17.236404 0.812438
					CHANNELS 3 Xrotation Yrotation Zrotation
					JOINT Head
					{
						OFFSET -1.422298 10.265228 1.558769
						CHANNELS 3 Xrotation Yrotation Zrotation
						End Site
						{
							OFFSET -1.391351 10.279083 1.494040
						}
					}
				}
				JOINT LeftCollar
				{
					OFFSET 4.280843 12.861115 4.250951
					CHANNELS 3 Xrotation Yrotation Zrotation
					JOINT LeftUpArm
					{
						OFFSET 16.828478 4.190262 -2.782692
						CHANNELS 3 Xrotation Yrotation Zrotation
						JOINT LeftLowArm
						{
							OFFSET 19.166464 22.180771 16.744783
							CHANNELS 3 Xrotation Yrotation Zrotation
							JOINT LeftHand
							{
								OFFSET 18.809692 19.784744 12.478222
								CHANNELS 3 Xrotation Yrotation Zrotation
								End Site
								{
									OFFSET 4.110954 4.324097 2.727180
								}
							}
						}
					}
				}
				JOINT RightCollar
				{
					OFFSET -3.966029 13.380890 2.651574
					CHANNELS 3 Xrotation Yrotation Zrotation
					JOINT RightUpArm
					{
						OFFSET -14.181646 5.330688 -8.885994
						CHANNELS 3 Xrotation Yrotation Zrotation
						JOINT RightLowArm
						{
							OFFSET -22.397024 21.970474 12.466171
							CHANNELS 3 Xrotation Yrotation Zrotation
							JOINT RightHand
							{
								OFFSET -18.318745 21.094421 10.972828
								CHANNELS 3 Xrotation Yrotation Zrotation
								End Site
								{
									OFFSET -4.003754 4.610397 2.398218
								}
							}
						}
					}
				}
			}
		}
	}
	JOINT LeftUpLeg
	{
		OFFSET 8.974228 -0.513458 4.429306
		CHANNELS 3 Xrotation Yrotation Zrotation
		JOINT LeftLowLeg
		{
			OFFSET 0.857808 -47.087723 5.098888
			CHANNELS 3 Xrotation Yrotation Zrotation
			JOINT LeftFoot
			{
				OFFSET 3.953912 -42.609543 -13.013852
				CHANNELS 3 Xrotation Yrotation Zrotation
				JOINT LeftToe
				{
					OFFSET -5.228573 -20.758793 10.064478
					CHANNELS 3 Xrotation Yrotation Zrotation
					End Site
					{
						OFFSET -6.323017 -9.108042 20.895500
					}
				}
			}
		}
	}
	JOINT RightUpLeg
	{
		OFFSET -8.974233 0.513260 -4.429327
		CHANNELS 3 Xrotation Yrotation Zrotation
		JOINT RightLowLeg
		{
			OFFSET -1.990371 -46.493271 -8.855854
			CHANNELS 3 Xrotation Yrotation Zrotation
			JOINT RightFoot
			{
				OFFSET 4.633797 -40.872566 -17.565338
				CHANNELS 3 Xrotation Yrotation Zrotation
				JOINT RightToe
				{
					OFFSET -2.872974 -22.029936 8.123096
					CHANNELS 3 Xrotation Yrotation Zrotation
					End Site
					{
						OFFSET -9.026075 -11.623386 18.519800
					}
				}
			}
		}
	}
}
MOTION
Frames: 8
Frame Time: 0.033333
1.636682 103.667427 -9.951727 -30.712482 -16.945039 -25.138397 21.430892 -0.219939 -0.787797 -1.184607 -1.901329 2.417121 -3.270562 30.168580 9.053277 5.319932 -11.924928 13.850615 -0.000000 0.000003 -0.000001 6.548358 0.085086 -11.550335 12.342919 14.131226 -27.697595 79.433324 -12.652804 105.981839 -0.000003 0.000004 -0.000003 5.502430 18.967273 28.056136 19.145186 55.523185 45.343112 67.915617 23.633151 -55.731444 0.000005 0.000001 0.000004 -57.436529 9.077155 -18.511266 4.763436 3.069035 7.139786 -2.355219 10.211176 7.548732 -0.000000 0.000000 0.000002 18.371261 -2.394224 5.444990 20.133101 -2.949112 19.035070 -19.526210 -22.121822 -19.561617 -0.000000 0.000000 0.000002 
1.641465 103.631424 -9.980604 -31.046652 -16.414329 -25.175329 21.438642 -0.222685 -0.357264 -1.248448 -2.123514 2.734256 -2.764594 29.580019 8.323579 5.623290 -11.792323 13.900474 0.000001 0.000001 0.000001 6.425180 0.417893 -11.762492 12.363651 14.076152 -27.730360 80.771017 -12.492644 104.721553 0.000006 0.000003 0.000003 5.381990 18.803787 28.323550 17.783811 55.435106 48.031147 67.871071 23.767175 -54.430624 0.000001 -0.000001 0.000006 -56.983640 9.348318 -19.099478 4.413200 3.109897 7.386535 -2.149907 10.111717 7.445171 -0.000001 -0.000000 -0.000003 18.879840 -2.426048 5.556989 20.007093 -3.004054 19.094079 -19.567635 -22.094168 -19.584510 0.000005 0.000000 0.000002 
1.651770 103.601181 -10.011731 -31.197470 -16.420962 -25.283477 21.280802 -0.240610 -0.157470 -1.064518 -2.150826 2.931004 -2.482460 29.364547 7.919491 5.807189 -11.592450 13.913853 -0.000001 -0.000002 0.000001 6.382408 0.955933 -12.047443 12.778684 13.929676 -27.772572 80.561132 -12.191119 105.127546 0.000003 0.000003 -0.000000 5.447102 18.888333 28.584181 18.020194 55.778576 48.164295 67.143143 23.469088 -53.896961 0.000002 -0.000002 0.000003 -57.015940 9.341158 -19.141216 4.343042 3.300902 6.837713 -2.381979 10.670000 7.910682 -0.000001 -0.000001 -0.000004 18.861400 -2.403433 5.660168 20.301568 -3.013106 18.834404 -19.612316 -21.520189 -19.394775 0.000002 -0.000002 0.000001 
1.658935 103.572533 -10.030836 -31.544976 -16.517107 -25.384996 21.042872 -0.216226 -0.141930 -0.176938 -1.995826 2.913196 -3.202351 29.382811 7.955788 6.296687 -11.406314 14.128721 -0.000001 -0.000000 -0.000000 6.985907 0.066151 -12.006784 12.791948 14.801010 -28.052541 80.214192 -11.869975 105.599349 0.000003 0.000003 0.000005 5.502914 18.614712 28.757822 17.416924 55.968342 49.639107 67.928089 23.235699 -53.823926 0.000001 -0.000001 0.000004 -56.883721 9.437881 -19.124011 3.889036 3.138613 7.392823 -2.177547 10.525987 7.709550 0.000001 0.000000 -0.000000 19.013633 -2.509498 5.520669 20.491805 -2.886514 18.923913 -19.597022 -21.479888 -19.348444 0.000000 -0.000002 0.000001 
1.663398 103.539490 -10.046684 -31.658402 -17.160736 -25.577590 21.363428 -0.231499 -0.507474 -0.250936 -1.852795 2.651214 -3.390996 29.620519 8.357632 6.240085 -11.178329 14.008955 0.000001 0.000001 0.000001 7.016936 0.488211 -12.048197 13.132595 14.518940 -27.893562 79.491681 -11.977084 105.376357 0.000001 0.000005 0.000002 5.750762 18.741482 28.628337 18.524962 56.521557 48.110739 66.961378 22.755484 -53.955950 0.000001 0.000001 0.000003 -57.683147 9.231393 -18.463586 4.267618 3.034083 7.055649 -2.112304 11.388266 8.159218 -0.000002 -0.000003 0.000003 18.714109 -2.459081 5.305875 20.742680 -2.663102 19.127912 -19.884955 -21.586825 -19.499927 0.000000 0.000000 0.000001 
1.665050 103.502899 -10.067896 -31.921087 -17.183742 -25.704662 21.487876 -0.282095 -0.444852 -0.802696 -2.040945 2.850627 -2.719379 30.151385 8.117690 6.496939 -10.974401 13.885899 -0.000000 0.000005 0.000001 7.308930 0.065577 -11.942666 13.305378 14.796251 -27.925618 78.702815 -12.146707 105.583195 0.000003 0.000000 -0.000000 5.626565 18.398755 28.988808 18.473773 56.343378 48.665822 67.254953 22.802585 -54.191568 -0.000000 0.000000 0.000006 -57.590181 9.153445 -18.466598 4.173390 3.100716 6.996708 -1.924927 11.611617 8.328566 -0.000004 0.000003 -0.000002 18.823981 -2.414489 5.176887 21.442196 -2.555322 19.183575 -20.035972 -21.523599 -19.646530 0.000002 -0.000002 -0.000000 
1.668018 103.471474 -10.086703 -32.134671 -16.885993 -25.708315 21.828834 -0.297149 -0.504202 -0.851343 -2.124870 3.007909 -2.799916 30.007309 8.066654 6.745281 -10.829772 13.796834 -0.000001 0.000001 0.000001 7.356626 -0.123590 -11.889641 13.389062 14.941616 -27.964333 78.615109 -12.161587 105.332452 0.000001 0.000003 0.000003 5.711449 18.679000 28.961716 19.214908 56.224075 47.360644 67.153539 22.624358 -54.489449 0.000002 -0.000002 0.000003 -57.181145 9.138108 -18.589393 3.833680 3.177823 6.901743 -1.851262 11.551504 8.376712 -0.000003 -0.000001 -0.000003 18.856610 -2.402280 5.188546 21.815602 -2.557839 19.442922 -20.302889 -21.935378 -20.061835 0.000002 0.000000 0.000000 
1.663962 103.432266 -10.108716 -32.152067 -17.408825 -25.876462 21.412862 -0.229642 -0.558835 0.129541 -1.764665 2.667876 -3.308710 29.743923 8.220964 6.564543 -10.627440 13.490179 -0.000000 -0.000001 0.000001 6.944847 0.221515 -11.930760 12.950419 15.429916 -28.095886 79.456875 -11.944690 105.412693 -0.000001 0.000003 0.000001 5.706631 18.937290 28.669596 17.765372 56.412868 49.684555 67.666370 22.756008 -54.189044 -0.000001 0.000002 0.000001 -57.651250 9.102873 -18.262708 4.132501 3.211937 6.505117 -2.227234 12.073430 8.602739 -0.000003 0.000002 -0.000002 18.353265 -2.426242 5.121450 21.934442 -2.393483 19.684508 -20.569919 -22.729466 -20.390118 0.000001 0.000001 0.000003 
